# xmcd
#
# Track frame offsets:
#       150
#       12408
#       25875
#       35674
#       48978
#       63686
#       73400
#       85718
#       98038
#       122521
#       135569
#       147610
#       158205
#       173008
#       185544
#       197806
#       211887
#       225062
#       236562
#       250312
#       260172
#       270495
#       283542
#       294752
#       307597
#
# Disc length: 4226 seconds
#
# Revision: 0
# Processed by: cddbd v1.5.2PL0 Copyright (c) Steve Scherf et al.
# Submitted via: CD-DA_X-Tractor v0.24
#
DISCID=63108019
DTITLE=Various Artist - R&B Greats Icons CD 2
DYEAR=2008
DGENRE=R&B
TTITLE0=Chuck Berry - School Day
TTITLE1=Clyde McPhatter - Without Love 
TTITLE2=Ruth Brown - Lucky Lips
TTITLE3=Little Walter - Mean Old World
TTITLE4=The Mello-Moods - Where Are You
TTITLE5=Fats Domino - My Blue Heaven
TTITLE6=The Pastels - Been So Long
TTITLE7=Lloyd Price - Ain't It A Shame
TTITLE8=Louis Jordan - Saturday Night Fish Fry
TTITLE9=The Chantels - Maybe
TTITLE10=Johnny Ace - Saving My Love For You
TTITLE11=The Dubs - Could This Be Magic
TTITLE12="Stick" McGhee - Drinkin' Wine Spo-Dee-O-Dee
TTITLE13=Tiny Grimes Quintet - Midnight Special
TTITLE14=Billy Ward - Rags To Riches
TTITLE15=B.B. King - You Know I Love You
TTITLE16=The Cellos - Rang Tang Ding Dong
TTITLE17=The Five Keys - Let There Be You
TTITLE18=The Harp-Tones - A Sunday Kind Of Love
TTITLE19=Little Richard - Long Tall Sally
TTITLE20=Johnnie and Joe - Over The Mountain Across The Sea
TTITLE21=The Cardinals - Wheel Of Fortune
TTITLE22=Dinah Washington - Fat Daddy
TTITLE23=Robert and Johnny - We Belong Together
TTITLE24=Frankie Lymon and The Teenagers - Baby, Baby
EXTD=
EXTT0=
EXTT1=
EXTT2=
EXTT3=
EXTT4=
EXTT5=
EXTT6=
EXTT7=
EXTT8=
EXTT9=
EXTT10=
EXTT11=
EXTT12=
EXTT13=
EXTT14=
EXTT15=
EXTT16=
EXTT17=
EXTT18=
EXTT19=
EXTT20=
EXTT21=
EXTT22=
EXTT23=
EXTT24=
PLAYORDER=
